HIERARCHY
ROOT RootJoint
{
    OFFSET   0.000000   0.000000   0.000000
    CHANNELS 6 Xposition Yposition Zposition Xrotation Yrotation Zrotation
    JOINT pelvis_lowerback
    {
        OFFSET   0.000000   0.093605   0.000000
        CHANNELS 3 Xrotation Yrotation Zrotation
        JOINT lowerback_torso
        {
            OFFSET   0.000000   0.100000   0.000000
            CHANNELS 3 Xrotation Yrotation Zrotation
            JOINT torso_head
            {
                OFFSET   0.000000   0.282350   0.000000
                CHANNELS 3 Xrotation Yrotation Zrotation
                End Site
                {
                    OFFSET   0.000000   0.192650   0.000000
                }
            }
            JOINT rTorso_Clavicle
            {
                OFFSET  -0.001000   0.157500   0.000000
                CHANNELS 3 Xrotation Yrotation Zrotation
                JOINT rShoulder
                {
                    OFFSET  -0.117647   0.000000   0.000000
                    CHANNELS 3 Xrotation Yrotation Zrotation
                    JOINT rElbow
                    {
                        OFFSET  -0.245000   0.000000   0.000000
                        CHANNELS 3 Xrotation Yrotation Zrotation
                        JOINT rWrist
                        {
                            OFFSET  -0.240000   0.000000   0.000000
                            CHANNELS 3 Xrotation Yrotation Zrotation
                            End Site
                            {
                                OFFSET  -0.116353  -0.002500   0.000000
                            }
                        }
                    }
                }
            }
            JOINT lTorso_Clavicle
            {
                OFFSET   0.001000   0.157500   0.000000
                CHANNELS 3 Xrotation Yrotation Zrotation
                JOINT lShoulder
                {
                    OFFSET   0.117647   0.000000   0.000000
                    CHANNELS 3 Xrotation Yrotation Zrotation
                    JOINT lElbow
                    {
                        OFFSET   0.245000   0.000000   0.000000
                        CHANNELS 3 Xrotation Yrotation Zrotation
                        JOINT lWrist
                        {
                            OFFSET   0.240000   0.000000   0.000000
                            CHANNELS 3 Xrotation Yrotation Zrotation
                            End Site
                            {
                                OFFSET   0.116353  -0.002500   0.000000
                            }
                        }
                    }
                }
            }
        }
    }
    JOINT rHip
    {
        OFFSET  -0.100000  -0.051395   0.000000
        CHANNELS 3 Xrotation Yrotation Zrotation
        JOINT rKnee
        {
            OFFSET   0.000000  -0.410000   0.000000
            CHANNELS 3 Xrotation Yrotation Zrotation
            JOINT rAnkle
            {
                OFFSET   0.000000  -0.390000   0.000000
                CHANNELS 3 Xrotation Yrotation Zrotation
                JOINT rToeJoint
                {
                    OFFSET   0.000000  -0.050000   0.130000
                    CHANNELS 3 Xrotation Yrotation Zrotation
                    End Site
                    {
                        OFFSET  -0.010000   0.002000   0.060000
                    }
                }
            }
        }
    }
    JOINT lHip
    {
        OFFSET   0.100000  -0.051395   0.000000
        CHANNELS 3 Xrotation Yrotation Zrotation
        JOINT lKnee
        {
            OFFSET   0.000000  -0.410000   0.000000
            CHANNELS 3 Xrotation Yrotation Zrotation
            JOINT lAnkle
            {
                OFFSET   0.000000  -0.390000   0.000000
                CHANNELS 3 Xrotation Yrotation Zrotation
                JOINT lToeJoint
                {
                    OFFSET   0.000000  -0.050000   0.130000
                    CHANNELS 3 Xrotation Yrotation Zrotation
                    End Site
                    {
                        OFFSET   0.010000   0.002000   0.060000
                    }
                }
            }
        }
    }
}
MOTION
Frames: 5
Frame Time:   0.008333
 -2.301256   0.904892   4.778440  -3.324052   3.543109  -0.651849  10.388748  -1.694049  -2.791885   3.025616  -2.557899  -0.991291  -2.225330   0.446442   1.251041   3.039782   0.548278  11.723379  15.612862  14.542014  50.124937  -0.002894  10.684831  -0.000008  10.285253   3.096661   3.848951  -1.189737  -2.508519  -8.966974   1.271829 -14.879489 -39.508516  -0.019373 -21.032164  -0.007931   8.563148  -5.175329   2.492873 -19.531690  -2.599646  -3.235006  43.053789  -0.001376  -0.011589  -8.062037  -5.810055   5.893127  -3.157727  -0.002126   0.002288  11.437199  -0.835366   1.518952   8.476494  -0.000624  -0.005097 -16.333210  -0.645171   3.059558  -0.597235  -0.000399  -0.000259
 -2.300878   0.903701   4.787408  -3.353326   3.657670  -0.594585  10.534697  -1.796352  -2.766379   2.957231  -2.616770  -0.917276  -2.339700   0.527905   1.165941   3.116989   0.432313  11.763137  15.947527  14.543400  50.165280  -0.003123  10.438149   0.000321  10.305342   3.079692   3.811324  -1.305267  -2.553278  -8.820327   0.845137 -15.059788 -39.346760  -0.018966 -21.674737  -0.007188   8.551183  -5.126279   2.638012 -20.189031  -2.533869  -3.314178  41.094711  -0.001537  -0.011252  -8.156965  -5.892522   5.934929  -3.090802  -0.001869   0.002019  12.213109  -0.690703   1.517796   8.192077  -0.000510  -0.004697 -16.438549  -0.800244   2.829872  -1.147071  -0.001173  -0.000555
 -2.300508   0.902499   4.796425  -3.383986   3.721040  -0.520160  10.677695  -1.875948  -2.748749   2.893793  -2.663444  -0.852550  -2.448473   0.607686   1.079583   3.193976   0.326270  11.806144  16.263112  14.544621  50.210259  -0.003287  10.204571   0.000546  10.331003   3.041465   3.796171  -1.421591  -2.602376  -8.676003   0.439623 -15.238242 -39.195821  -0.018330 -22.282530  -0.006370   8.542931  -5.116530   2.778130 -20.849870  -2.461413  -3.411586  39.134985  -0.001323  -0.010147  -8.248392  -5.969395   5.973743  -3.013066  -0.001702   0.001801  12.962458  -0.558152   1.493200   7.971098  -0.000391  -0.004132 -16.500585  -0.958416   2.617576  -1.819288  -0.001907  -0.000518
 -2.300163   0.901252   4.805542  -3.423130   3.760270  -0.444164  10.815068  -1.953063  -2.724909   2.838760  -2.709290  -0.787868  -2.548655   0.682785   0.998209   3.268369   0.225895  11.847263  16.559199  14.545103  50.254532  -0.003372   9.985787   0.000657  10.356561   2.998587   3.793329  -1.532675  -2.650878  -8.537919   0.059289 -15.408088 -39.054769  -0.017496 -22.851560  -0.005504   8.535597  -5.121569   2.916439 -21.512944  -2.390710  -3.509408  37.269771  -0.000973  -0.008781  -8.335473  -6.041217   6.010021  -2.944272  -0.001544   0.001587  13.706127  -0.431532   1.464653   7.794953  -0.000288  -0.003561 -16.543888  -1.105801   2.418503  -2.567728  -0.002535  -0.000400
 -2.299857   0.899949   4.814785  -3.469029   3.793191  -0.370559  10.942977  -2.033228  -2.692678   2.790291  -2.758705  -0.719954  -2.641207   0.752775   0.923024   3.341540   0.128669  11.886683  16.838068  14.543770  50.297417  -0.003391   9.780601   0.000689  10.381251   2.953679   3.796937  -1.637183  -2.697996  -8.407620  -0.296248 -15.568566 -38.923616  -0.016531 -23.383211  -0.004668   8.528989  -5.131024   3.050035 -22.170932  -2.322486  -3.603151  35.516458  -0.000649  -0.007514  -8.417636  -6.108294   6.043980  -2.884795  -0.001390   0.001389  14.446253  -0.310451   1.439616   7.656932  -0.000206  -0.003037 -16.574594  -1.243174   2.232878  -3.378631  -0.003031  -0.000313
